<svg xmlns="http://www.w3.org/2000/svg" viewBox="0 0 240 160" role="img" aria-labelledby="title desc"><title id="title">Robot being walked on a leash</title><desc id="desc">A friendly orange robot rolls forward while a small dog holds its leash.</desc><rect width="240" height="160" rx="24" fill="#fff7ed"/><path d="M66 112 C92 74 116 66 144 86" fill="none" stroke="#d97706" stroke-width="5" stroke-linecap="round" stroke-dasharray="9 8"/><g transform="translate(124 36)"><rect x="0" y="18" width="70" height="58" rx="14" fill="#f59e0b" stroke="#1a1a2e" stroke-width="4"/><rect x="19" y="0" width="32" height="22" rx="8" fill="#fed7aa" stroke="#1a1a2e" stroke-width="4"/><circle cx="22" cy="47" r="6" fill="#1a1a2e"/><circle cx="49" cy="47" r="6" fill="#1a1a2e"/><path d="M25 61 Q35 69 46 61" fill="none" stroke="#1a1a2e" stroke-width="4" stroke-linecap="round"/><circle cx="16" cy="86" r="10" fill="#1a1a2e"/><circle cx="54" cy="86" r="10" fill="#1a1a2e"/></g><g transform="translate(34 86)"><ellipse cx="12" cy="0" rx="8" ry="12" fill="#d97706" transform="rotate(-25 12 0)"/><ellipse cx="42" cy="0" rx="8" ry="12" fill="#d97706" transform="rotate(25 42 0)"/><circle cx="27" cy="24" r="24" fill="#f59e0b" stroke="#1a1a2e" stroke-width="4"/><circle cx="18" cy="19" r="4" fill="#1a1a2e"/><circle cx="36" cy="19" r="4" fill="#1a1a2e"/><ellipse cx="27" cy="29" rx="5" ry="4" fill="#1a1a2e"/><path d="M52 26 C68 25 76 18 84 10" fill="none" stroke="#1a1a2e" stroke-width="4" stroke-linecap="round"/></g></svg>
